<?xml version="1.0" encoding="UTF-8" standalone="no"?>
<!-- Created with Inkscape (http://www.inkscape.org/) -->

<svg
   width="512"
   height="512"
   viewBox="0 0 512 512"
   version="1.1"
   id="svg1"
   sodipodi:docname="Square_Black.svg"
   inkscape:version="1.4 (e7c3feb100, 2024-10-09)"
   inkscape:export-filename="Square Black.png"
   inkscape:export-xdpi="96"
   inkscape:export-ydpi="96"
   xmlns:inkscape="http://www.inkscape.org/namespaces/inkscape"
   xmlns:sodipodi="http://sodipodi.sourceforge.net/DTD/sodipodi-0.dtd"
   xmlns:xlink="http://www.w3.org/1999/xlink"
   xmlns="http://www.w3.org/2000/svg"
   xmlns:svg="http://www.w3.org/2000/svg">
  <sodipodi:namedview
     id="namedview1"
     pagecolor="#ffffff"
     bordercolor="#000000"
     borderopacity="0.25"
     inkscape:showpageshadow="2"
     inkscape:pageopacity="0.0"
     inkscape:pagecheckerboard="0"
     inkscape:deskcolor="#d1d1d1"
     inkscape:document-units="px"
     inkscape:zoom="0.90949757"
     inkscape:cx="164.37647"
     inkscape:cy="270.47901"
     inkscape:window-width="1440"
     inkscape:window-height="831"
     inkscape:window-x="0"
     inkscape:window-y="0"
     inkscape:window-maximized="1"
     inkscape:current-layer="layer1" />
  <defs
     id="defs1">
    <linearGradient
       id="linearGradient8"
       inkscape:collect="always">
      <stop
         style="stop-color:#ffd319;stop-opacity:1;"
         offset="0"
         id="stop9" />
      <stop
         style="stop-color:#ff901f;stop-opacity:1;"
         offset="0.25"
         id="stop15" />
      <stop
         style="stop-color:#ff2975;stop-opacity:1;"
         offset="0.5"
         id="stop14" />
      <stop
         style="stop-color:#f222ff;stop-opacity:1;"
         offset="0.75"
         id="stop13" />
      <stop
         style="stop-color:#8c1eff;stop-opacity:1;"
         offset="1"
         id="stop10" />
    </linearGradient>
    <clipPath
       clipPathUnits="userSpaceOnUse"
       id="clipPath11">
      <g
         inkscape:label="Clip"
         id="use11" />
    </clipPath>
    <linearGradient
       inkscape:collect="always"
       xlink:href="#linearGradient8"
       id="linearGradient1"
       gradientUnits="userSpaceOnUse"
       x1="256"
       y1="-1.9980469"
       x2="256"
       y2="513.99805"
       gradientTransform="translate(-2.7e-6,0.6539247)" />
  </defs>
  <g
     inkscape:label="Layer 1"
     inkscape:groupmode="layer"
     id="layer1">
    <path
       id="path2"
       style="fill:#000000;stroke-linecap:round;stroke-linejoin:round;fill-opacity:1"
       inkscape:label="Omega"
       d="M 256 31 C 148.43681 31 58.188077 107.07983 36.173828 208.18945 L 87.615234 208.18945 C 108.32774 134.63801 175.65052 81 256 81 C 336.34948 81 403.67226 134.63801 424.38477 208.18945 L 475.82617 208.18945 C 453.81192 107.07983 363.56319 31 256 31 z M 35.324219 212.18945 C 33.269979 222.53424 31.909446 233.12296 31.333984 243.91797 L 81.457031 243.91797 C 82.19309 233.03835 83.864824 222.42329 86.484375 212.18945 L 35.324219 212.18945 z M 425.51562 212.18945 C 428.13518 222.42329 429.80691 233.03835 430.54297 243.91797 L 480.66602 243.91797 C 480.09055 233.12296 478.73002 222.53424 476.67578 212.18945 L 425.51562 212.18945 z M 31.103516 251.91797 C 31.078985 253.28111 31 254.63117 31 256 C 31 265.36348 31.616449 274.58191 32.738281 283.64648 L 83.242188 283.64648 C 81.821497 274.63624 81 265.42209 81 256 C 81 254.63068 81.070585 253.27959 81.101562 251.91797 L 31.103516 251.91797 z M 430.89844 251.91797 C 430.92942 253.27959 431 254.63068 431 256 C 431 265.42209 430.1785 274.63624 428.75781 283.64648 L 479.26172 283.64648 C 480.38355 274.58191 481 265.36348 481 256 C 481 254.63117 480.92102 253.28111 480.89648 251.91797 L 430.89844 251.91797 z M 35.359375 299.64648 C 37.516593 310.51355 40.383206 321.12876 44.054688 331.375 L 97.988281 331.375 C 93.19029 321.29683 89.331753 310.68892 86.513672 299.64648 L 35.359375 299.64648 z M 425.48633 299.64648 C 422.66825 310.68892 418.80971 321.29683 414.01172 331.375 L 467.94531 331.375 C 471.61679 321.12876 474.48341 310.51355 476.64062 299.64648 L 425.48633 299.64648 z M 54.298828 355.375 C 59.824867 366.50064 66.243462 377.1072 73.464844 387.10352 L 139.91406 387.10352 C 129.31966 377.7252 119.91289 367.05877 111.85742 355.375 L 54.298828 355.375 z M 400.14258 355.375 C 392.08711 367.05877 382.68034 377.7252 372.08594 387.10352 L 438.53516 387.10352 C 445.75654 377.1072 452.17513 366.50064 457.70117 355.375 L 400.14258 355.375 z M 101.57617 419.10352 C 105.93038 423.22344 110.39081 427.2323 115.06055 431 L 23.001953 431 L -1.9980469 431 L -1.9980469 481 L 23.001953 481 L 166 481 L 166 462.12305 L 166 431 L 166 419.10352 L 101.57617 419.10352 z M 346 419.10352 L 346 431 L 346 462.12305 L 346 481 L 488.99805 481 L 513.99805 481 L 513.99805 431 L 488.99805 431 L 396.93945 431 C 401.60919 427.2323 406.06962 423.22344 410.42383 419.10352 L 346 419.10352 z " />
    <path
       id="path1"
       style="fill:url(#linearGradient1);stroke-linecap:round;stroke-linejoin:round"
       inkscape:label="Sun"
       d="M 256 132.14453 C 204.54635 132.14453 160.43093 163.52667 141.72266 208.18945 L 370.27734 208.18945 C 351.56907 163.52667 307.45365 132.14453 256 132.14453 z M 140.14258 212.18945 C 136.3503 222.21231 133.81221 232.84806 132.74023 243.91797 L 379.25977 243.91797 C 378.18779 232.84806 375.6497 222.21231 371.85742 212.18945 L 140.14258 212.18945 z M 132.24805 251.91797 C 132.20396 253.27641 132.14453 254.63084 132.14453 256 C 132.14453 265.50835 133.25249 274.75278 135.28125 283.64648 L 376.71875 283.64648 C 378.74751 274.75278 379.85547 265.50835 379.85547 256 C 379.85547 254.63084 379.79604 253.27641 379.75195 251.91797 L 132.24805 251.91797 z M 140.07812 299.64648 C 144.4065 311.13603 150.39582 321.80355 157.75 331.375 L 354.25 331.375 C 361.60418 321.80355 367.5935 311.13603 371.92188 299.64648 L 140.07812 299.64648 z M 182.07227 355.375 C 202.70665 370.7508 228.28863 379.85547 256 379.85547 C 283.71137 379.85547 309.29335 370.7508 329.92773 355.375 L 182.07227 355.375 z " />
  </g>
</svg>
